<svg width="243" height="103" viewBox="0 0 243 103" fill="none" xmlns="http://www.w3.org/2000/svg">
<path d="M113.364 100.603C80.505 96.2607 51.5524 86.5827 31.3073 74.4765C21.1835 68.4226 13.2692 61.7807 8.12481 54.9255C2.98328 48.074 0.637853 41.0529 1.54443 34.1932C2.44991 27.3418 6.48551 21.5148 13.1477 16.7443C19.8199 11.9667 29.0918 8.27774 40.3547 5.73189C62.8771 0.641009 93.1829 0.160392 126.064 4.50595C158.997 8.85839 188.819 14.1985 209.925 21.9814C220.481 25.8741 228.789 30.3541 234.216 35.5737C239.618 40.769 242.143 46.6679 241.241 53.4932C240.333 60.3657 236.066 67.2995 229.044 73.7208C222.028 80.1361 212.314 85.9902 200.637 90.702C177.283 100.125 146.173 104.939 113.364 100.603Z" stroke="#212121" stroke-width="1.5"/>
</svg>
